<?xml version="1.0" encoding="UTF-8"?><svg xmlns="http://www.w3.org/2000/svg" xmlns:xlink="http://www.w3.org/1999/xlink" viewBox="0 0 1114.78 1114.78"><defs><style>.cls-1{isolation:isolate;}.cls-2{fill:url(#radial-gradient);mix-blend-mode:multiply;opacity:.3;}.cls-3{clip-path:url(#clippath);}.cls-4{fill:none;}.cls-5{fill:#0b6e3e;}.cls-6{fill:#ce3238;}</style><clipPath id="clippath"><circle class="cls-4" cx="557.39" cy="557.39" r="557.39"/></clipPath><radialGradient id="radial-gradient" cx="557.39" cy="557.39" fx="557.39" fy="557.39" r="557.39" gradientUnits="userSpaceOnUse"><stop offset="0" stop-color="#fff"/><stop offset=".36" stop-color="#fdfdfd"/><stop offset=".48" stop-color="#f6f6f6"/><stop offset=".58" stop-color="#eaeaea"/><stop offset=".65" stop-color="#d9d9d9"/><stop offset=".71" stop-color="#c3c3c3"/><stop offset=".77" stop-color="#a8a8a8"/><stop offset=".82" stop-color="#878787"/><stop offset=".87" stop-color="#626262"/><stop offset=".91" stop-color="#373737"/><stop offset=".95" stop-color="#090909"/><stop offset=".96" stop-color="#000"/></radialGradient></defs><g class="cls-1"><g id="Layer_2"><g id="Layer_1-2"><g id="Morocco"><g class="cls-3"><g><rect class="cls-6" x="-279.02" width="1672.83" height="1114.78"/><path class="cls-5" d="m819.85,467.46h-200.5l-61.97-190.69-61.96,190.69h-200.5l162.21,117.86-61.97,190.7,162.22-117.86,162.22,117.86-61.96-190.69,162.21-117.86Zm-195.18,107.14l-67.29,48.89-67.28-48.88h0s0,0,0,0l25.7-79.1h83.18l25.69,79.1Zm-67.29-207.09l32.48,99.95h-64.95l32.47-99.95Zm-176.15,127.99h105.09l-20.07,61.77-85.02-61.77Zm67.29,207.09l32.48-99.94,52.54,38.17-85.02,61.77Zm217.74,0l-85.01-61.77,52.54-38.17,32.47,99.94Zm-37.79-207.09h105.09l-85.02,61.77-20.07-61.77Z"/></g><circle class="cls-2" cx="557.39" cy="557.39" r="557.39"/></g></g></g></g></g></svg>